HIERARCHY
ROOT root
{
	OFFSET 0.000000 0.000000 0.000000
	CHANNELS 6 Xposition Yposition Zposition Zrotation Yrotation Xrotation
	JOINT lhip
	{
		OFFSET 0.058581 -0.082280 -0.017664
		CHANNELS 3 Zrotation Yrotation Xrotation
		JOINT lknee
		{
			OFFSET 0.043451 -0.386469 0.008037
			CHANNELS 3 Zrotation Yrotation Xrotation
			JOINT lankle
			{
				OFFSET -0.014790 -0.426874 -0.037428
				CHANNELS 3 Zrotation Yrotation Xrotation
				JOINT ltoe
				{
					OFFSET 0.041054 -0.060286 0.122042
					CHANNELS 3 Zrotation Yrotation Xrotation
					End Site
					{
						OFFSET 0.000000 0.000000 0.000000
					}
				}
			}
		}
	}
	JOINT rhip
	{
		OFFSET -0.060310 -0.090513 -0.013543
		CHANNELS 3 Zrotation Yrotation Xrotation
		JOINT rknee
		{
			OFFSET -0.043257 -0.383688 -0.004843
			CHANNELS 3 Zrotation Yrotation Xrotation
			JOINT rankle
			{
				OFFSET 0.019056 -0.420046 -0.034562
				CHANNELS 3 Zrotation Yrotation Xrotation
				JOINT rtoe
				{
					OFFSET -0.034840 -0.062106 0.130323
					CHANNELS 3 Zrotation Yrotation Xrotation
					End Site
					{
						OFFSET 0.000000 0.000000 0.000000
					}
				}
			}
		}
	}
	JOINT lowerback
	{
		OFFSET 0.004439 0.124404 -0.038385
		CHANNELS 3 Zrotation Yrotation Xrotation
		JOINT upperback
		{
			OFFSET 0.004488 0.137956 0.026820
			CHANNELS 3 Zrotation Yrotation Xrotation
			JOINT chest
			{
				OFFSET -0.002265 0.056032 0.002855
				CHANNELS 3 Zrotation Yrotation Xrotation
				JOINT lowerneck
				{
					OFFSET -0.013390 0.211636 -0.033468
					CHANNELS 3 Zrotation Yrotation Xrotation
					JOINT upperneck
					{
						OFFSET 0.010113 0.088937 0.050410
						CHANNELS 3 Zrotation Yrotation Xrotation
						End Site
						{
							OFFSET 0.000000 0.000000 0.000000
						}
					}
				}
				JOINT lclavicle
				{
					OFFSET 0.071702 0.114000 -0.018898
					CHANNELS 3 Zrotation Yrotation Xrotation
					JOINT lshoulder
					{
						OFFSET 0.122921 0.045205 -0.019046
						CHANNELS 3 Zrotation Yrotation Xrotation
						JOINT lelbow
						{
							OFFSET 0.255332 -0.015649 -0.022946
							CHANNELS 3 Zrotation Yrotation Xrotation
							JOINT lwrist
							{
								OFFSET 0.265709 0.012698 -0.007375
								CHANNELS 3 Zrotation Yrotation Xrotation
								End Site
								{
									OFFSET 0.000000 0.000000 0.000000
								}
							}
						}
					}
				}
				JOINT rclavicle
				{
					OFFSET -0.082954 0.112472 -0.023707
					CHANNELS 3 Zrotation Yrotation Xrotation
					JOINT rshoulder
					{
						OFFSET -0.113228 0.046853 -0.008472
						CHANNELS 3 Zrotation Yrotation Xrotation
						JOINT relbow
						{
							OFFSET -0.260127 -0.014369 -0.031269
							CHANNELS 3 Zrotation Yrotation Xrotation
							JOINT rwrist
							{
								OFFSET -0.269108 0.006794 -0.006027
								CHANNELS 3 Zrotation Yrotation Xrotation
								End Site
								{
									OFFSET 0.000000 0.000000 0.000000
								}
							}
						}
					}
				}
			}
		}
	}
}
MOTION
Frames: 7
Frame Time: 0.033333
0.092437 0.414645 1.039498 -63.498014 1.763979 94.377576 8.853664 7.385455 0.037419 -3.801845 -9.655837 -1.195719 -3.544871 17.917134 -2.825214 0.000000 -0.000000 0.000000 -4.008418 -8.939321 -5.144598 6.485773 5.446414 6.066093 7.455961 -11.932333 -8.114931 0.000000 -0.000000 0.000000 0.046922 2.037659 2.968049 -2.829099 -0.821953 -5.721347 1.295181 2.102396 -5.943534 -6.983766 9.705223 7.251754 -1.907617 16.509047 -1.638165 15.207287 7.430427 -8.029468 -21.553365 -1.867191 -24.379297 17.200564 -1.729842 -32.823443 44.316206 -18.122052 0.276259 -17.891765 -8.841791 -6.937885 15.001255 -4.953332 -23.349738 -10.671151 0.868596 -24.903558 -38.075543 6.931727 8.558470 
0.093320 0.414940 1.038845 -63.359478 1.737479 94.465906 8.791601 7.462375 -0.177980 -3.742782 -9.674191 -1.234950 -3.431764 17.578486 -2.907546 0.000000 -0.000000 0.000000 -3.989774 -9.059063 -5.438038 6.380077 5.239866 6.332409 7.392846 -11.611789 -8.153463 0.000000 -0.000000 0.000000 -0.056508 2.020213 3.030637 -2.828734 -0.773028 -5.721800 1.331867 2.044853 -6.059148 -6.786099 9.614404 6.989633 -1.670883 16.371238 -1.135464 14.598699 7.850278 -8.205271 -22.396712 -2.107821 -24.449717 17.481190 -1.568234 -33.124331 43.217192 -17.534522 0.764994 -16.994174 -9.238017 -7.076989 15.731536 -4.930131 -23.456960 -10.865297 0.672189 -25.419308 -36.919940 6.279513 8.655274 
0.094068 0.414690 1.038481 -63.250984 1.694415 94.524097 8.690240 7.467652 -0.287917 -3.703450 -9.805840 -1.287809 -3.316342 17.601258 -2.886379 0.000000 -0.000000 0.000000 -4.088414 -9.241793 -5.591810 6.437459 5.146870 6.462532 7.336443 -11.476360 -8.228236 0.000000 -0.000000 0.000000 -0.167936 1.947997 3.036685 -2.764140 -0.693323 -5.661879 1.375452 2.106766 -6.243125 -6.618216 9.579118 6.748333 -1.640035 16.259263 -0.719996 13.819476 8.232730 -8.286960 -23.000848 -2.324753 -24.499066 17.684531 -1.340346 -33.003548 43.177944 -16.921587 0.667619 -16.317192 -9.592248 -6.648694 16.294626 -4.941920 -23.861619 -10.711064 0.499660 -25.533308 -37.066660 5.617413 8.099930 
0.094903 0.414487 1.038163 -63.091853 1.642921 94.664556 8.623348 7.443343 -0.560631 -3.782405 -9.486763 -1.203510 -3.339367 17.303143 -2.810828 0.000000 -0.000000 0.000000 -4.177808 -9.268876 -5.801122 6.446537 4.922159 6.532612 7.327190 -11.392630 -8.221951 0.000000 -0.000000 0.000000 -0.169353 1.914769 2.999862 -2.830047 -0.700024 -5.477505 1.420200 1.899421 -6.517857 -6.725546 9.478573 6.378866 -1.607259 16.682730 -0.786614 13.090532 8.502234 -8.269805 -23.398485 -1.935082 -24.577858 17.744879 -1.450467 -34.042293 43.561256 -17.014092 1.191825 -15.604372 -9.669694 -6.605368 16.815216 -5.113691 -23.878870 -10.622783 0.725967 -27.032983 -37.879195 5.761741 8.810908 
0.095644 0.414431 1.037390 -62.948500 1.661503 94.855001 8.686873 7.428339 -0.790598 -3.886394 -9.509509 -1.287722 -3.528555 17.038917 -2.828994 0.000000 -0.000000 0.000000 -4.153228 -9.297103 -5.936248 6.441458 4.818946 6.328475 7.296036 -11.378664 -8.080899 0.000000 -0.000000 0.000000 -0.175808 1.742937 2.990244 -2.842372 -0.747586 -5.324365 1.452982 1.900437 -6.788009 -6.827608 9.163398 5.926211 -1.570566 16.983111 -0.661303 12.404629 8.796781 -8.276151 -23.738914 -1.577851 -24.557213 17.812652 -1.757660 -34.345734 42.763974 -16.673609 1.447337 -14.968441 -9.585094 -6.681710 17.154036 -5.090516 -24.092121 -10.611683 0.135824 -27.821650 -36.632788 5.747319 9.163465 
0.096355 0.414282 1.036950 -62.862527 1.651123 95.009877 8.592179 7.308423 -0.964979 -3.824987 -9.693357 -1.430526 -3.235219 17.110851 -2.954620 0.000000 -0.000000 0.000000 -4.120077 -9.221876 -6.086524 6.375257 4.828557 6.210654 7.177726 -11.601844 -8.001332 0.000000 -0.000000 0.000000 -0.186204 1.734402 2.829896 -2.819626 -0.743489 -5.221263 1.381753 1.828256 -6.791111 -6.613051 9.189264 5.247635 -1.457238 16.866762 -0.260450 11.751137 9.137260 -8.363224 -24.034643 -1.670867 -24.612204 18.127245 -1.610070 -34.516222 42.621909 -16.774548 1.590278 -14.162714 -9.798004 -6.641795 17.563373 -4.937330 -24.109360 -10.812342 0.096444 -28.490617 -35.862066 5.294335 9.133977 
0.097064 0.414130 1.036741 -62.794522 1.598955 95.118882 8.545300 7.344116 -1.185047 -3.912706 -9.401669 -1.338262 -3.226590 16.739078 -2.903283 0.000000 -0.000000 0.000000 -4.176468 -9.310205 -6.200493 6.326457 4.723020 6.124678 7.196483 -11.490585 -7.948082 0.000000 -0.000000 0.000000 -0.280987 1.786904 2.814369 -2.806115 -0.750316 -5.084084 1.333844 1.814330 -6.886437 -6.444309 9.192841 4.665994 -1.240667 16.605042 -0.017185 11.264715 9.409252 -8.316234 -24.569898 -1.614117 -24.390241 18.185511 -1.925061 -34.937488 41.923193 -16.143042 1.294036 -13.463214 -9.999979 -6.762061 17.877046 -4.834410 -24.153001 -11.165736 -0.111037 -29.212213 -34.288739 4.487548 8.908034 
